# xmcd CD database file
#
# Track frame offsets:
#	150
#	14550
#	32855
#	45324
#	62796
#	77508
#	94281
#	107929
#	129947
#	149481
#	164914
#	183989
#
# Disc length: 2641 seconds
#
# Revision: 0
# Processed by: cddbd v1.5.2PL0 Copyright (c) Steve Scherf et al.
# Submitted via: CDex 1.79
#
DISCID=a70a4f0c
DTITLE=The Willis Clan - Chapter Two - Boots
DYEAR=2014
DGENRE=Country
TTITLE0=What Can I Say
TTITLE1=Since I Left Home
TTITLE2=Nervous Breakdown
TTITLE3=Fair Weather Love
TTITLE4=Butterfly
TTITLE5=Slow Me Down
TTITLE6=Wild And Free
TTITLE7=Sadie
TTITLE8=City Down Below
TTITLE9=Grandpa's Waltz
TTITLE10=Ode to a Toad
TTITLE11=Plowin' Song
EXTD=YEAR: 2014
EXTT0=
EXTT1=
EXTT2=
EXTT3=
EXTT4=
EXTT5=
EXTT6=
EXTT7=
EXTT8=
EXTT9=
EXTT10=
EXTT11=
PLAYORDER=
